simulation
nRows=50
nColumns=15
endheader
time  TH_x TH_y TH_z SC_y  SC_z  SC_x  AC_y  AC_z  AC_x  GH_y  GH_z  GH_yy  EL_x  PS_y
1.000000  0.000000  0.000000  0.000000  -36.311686  4.577397  12.280590  43.537241  21.437193  -2.081264  1.424646  49.327293  1.603186  21.552960  0.000000
1.010000  0.000000  0.000000  0.000000  -36.341089  4.634795  12.381198  43.484447  21.650991  -2.035194  1.526484  49.543036  1.448065  21.539968  0.000000
1.020000  0.000000  0.000000  0.000000  -36.369858  4.690925  12.478928  43.432195  21.861231  -1.989176  1.626382  49.751182  1.295089  21.527615  0.000000
1.030000  0.000000  0.000000  0.000000  -36.397984  4.745761  12.573734  43.380513  22.067813  -1.943227  1.724275  49.951719  1.144268  21.515903  0.000000
1.040000  0.000000  0.000000  0.000000  -36.425457  4.799279  12.665571  43.329429  22.270637  -1.897366  1.820104  50.144634  0.995611  21.504836  0.000000
1.050000  0.000000  0.000000  0.000000  -36.452268  4.851455  12.754396  43.278968  22.469609  -1.851612  1.913808  50.329919  0.849130  21.494419  0.000000
1.060000  0.000000  0.000000  0.000000  -36.478407  4.902264  12.840167  43.229157  22.664633  -1.805982  2.005330  50.507565  0.704834  21.484653  0.000000
1.070000  0.000000  0.000000  0.000000  -36.503865  4.951685  12.922844  43.180021  22.855620  -1.760493  2.094612  50.677563  0.562734  21.475541  0.000000
1.080000  0.000000  0.000000  0.000000  -36.528633  4.999696  13.002389  43.131585  23.042480  -1.715164  2.181599  50.839908  0.422839  21.467087  0.000000
1.090000  0.000000  0.000000  0.000000  -36.552702  5.046275  13.078763  43.083874  23.225126  -1.670013  2.266237  50.994593  0.285161  21.459292  0.000000
1.100000  0.000000  0.000000  0.000000  -36.576065  5.091401  13.151931  43.036912  23.403474  -1.625055  2.348475  51.141616  0.149709  21.452158  0.000000
1.110000  0.000000  0.000000  0.000000  -36.598712  5.135055  13.221858  42.990722  23.577443  -1.580310  2.428262  51.280972  0.016494  21.445688  0.000000
1.120000  0.000000  0.000000  0.000000  -36.620636  5.177217  13.288511  42.945327  23.746952  -1.535793  2.505547  51.412661  -0.114473  21.439883  0.000000
1.130000  0.000000  0.000000  0.000000  -36.641830  5.217869  13.351859  42.900749  23.911924  -1.491522  2.580285  51.536681  -0.243182  21.434744  0.000000
1.140000  0.000000  0.000000  0.000000  -36.662284  5.256993  13.411871  42.857011  24.072285  -1.447513  2.652428  51.653034  -0.369622  21.430272  0.000000
1.150000  0.000000  0.000000  0.000000  -36.681993  5.294571  13.468519  42.814134  24.227961  -1.403784  2.721932  51.761721  -0.493783  21.426469  0.000000
1.160000  0.000000  0.000000  0.000000  -36.700948  5.330588  13.521774  42.772138  24.378882  -1.360349  2.788753  51.862745  -0.615653  21.423335  0.000000
1.170000  0.000000  0.000000  0.000000  -36.719144  5.365027  13.571612  42.731045  24.524981  -1.317227  2.852851  51.956110  -0.735222  21.420869  0.000000
1.180000  0.000000  0.000000  0.000000  -36.736573  5.397873  13.618008  42.690873  24.666192  -1.274432  2.914184  52.041823  -0.852478  21.419074  0.000000
1.190000  0.000000  0.000000  0.000000  -36.753229  5.429112  13.660938  42.651642  24.802452  -1.231982  2.972714  52.119889  -0.967412  21.417948  0.000000
1.200000  0.000000  0.000000  0.000000  -36.769105  5.458730  13.700380  42.613370  24.933699  -1.189891  3.028405  52.190316  -1.080011  21.417491  0.000000
1.210000  0.000000  0.000000  0.000000  -36.784196  5.486713  13.736316  42.576077  25.059875  -1.148175  3.081219  52.253113  -1.190265  21.417702  0.000000
1.220000  0.000000  0.000000  0.000000  -36.798496  5.513050  13.768726  42.539780  25.180925  -1.106851  3.131124  52.308290  -1.298163  21.418581  0.000000
1.230000  0.000000  0.000000  0.000000  -36.811999  5.537729  13.797592  42.504496  25.296793  -1.065932  3.178086  52.355859  -1.403693  21.420127  0.000000
1.240000  0.000000  0.000000  0.000000  -36.824700  5.560738  13.822899  42.470242  25.407429  -1.025436  3.222075  52.395833  -1.506845  21.422339  0.000000
1.250000  0.000000  0.000000  0.000000  -36.836594  5.582068  13.844633  42.437033  25.512783  -0.985375  3.263061  52.428224  -1.607606  21.425214  0.000000
1.260000  0.000000  0.000000  0.000000  -36.847675  5.601708  13.862779  42.404886  25.612809  -0.945767  3.301015  52.453047  -1.705965  21.428751  0.000000
1.270000  0.000000  0.000000  0.000000  -36.857940  5.619650  13.877327  42.373816  25.707461  -0.906624  3.335911  52.470320  -1.801911  21.432949  0.000000
1.280000  0.000000  0.000000  0.000000  -36.867383  5.635886  13.888267  42.343837  25.796699  -0.867963  3.367724  52.480059  -1.895433  21.437805  0.000000
1.290000  0.000000  0.000000  0.000000  -36.876001  5.650407  13.895590  42.314964  25.880481  -0.829797  3.396430  52.482282  -1.986518  21.443316  0.000000
1.300000  0.000000  0.000000  0.000000  -36.883789  5.663207  13.899288  42.287209  25.958770  -0.792140  3.422008  52.477009  -2.075156  21.449480  0.000000
1.310000  0.000000  0.000000  0.000000  -36.890743  5.674280  13.899356  42.260587  26.031532  -0.755007  3.444436  52.464262  -2.161333  21.456293  0.000000
1.320000  0.000000  0.000000  0.000000  -36.896861  5.683619  13.895788  42.235109  26.098733  -0.718412  3.463695  52.444061  -2.245040  21.463754  0.000000
1.330000  0.000000  0.000000  0.000000  -36.902138  5.691221  13.888583  42.210788  26.160343  -0.682369  3.479768  52.416431  -2.326263  21.471858  0.000000
1.340000  0.000000  0.000000  0.000000  -36.906571  5.697081  13.877739  42.187636  26.216333  -0.646891  3.492639  52.381395  -2.404992  21.480601  0.000000
1.350000  0.000000  0.000000  0.000000  -36.910158  5.701196  13.863255  42.165662  26.266679  -0.611992  3.502293  52.338979  -2.481213  21.489980  0.000000
1.360000  0.000000  0.000000  0.000000  -36.912896  5.703562  13.845133  42.144878  26.311356  -0.577685  3.508718  52.289211  -2.554915  21.499990  0.000000
1.370000  0.000000  0.000000  0.000000  -36.914782  5.704178  13.823376  42.125294  26.350343  -0.543984  3.511900  52.232117  -2.626086  21.510627  0.000000
1.380000  0.000000  0.000000  0.000000  -36.915814  5.703042  13.797987  42.106919  26.383622  -0.510901  3.511831  52.167728  -2.694714  21.521887  0.000000
1.390000  0.000000  0.000000  0.000000  -36.915991  5.700153  13.768972  42.089761  26.411175  -0.478450  3.508502  52.096072  -2.760786  21.533765  0.000000
1.400000  0.000000  0.000000  0.000000  -36.915309  5.695512  13.736339  42.073830  26.432990  -0.446643  3.501906  52.017183  -2.824291  21.546255  0.000000
1.410000  0.000000  0.000000  0.000000  -36.913768  5.689119  13.700096  42.059134  26.449054  -0.415492  3.492037  51.931092  -2.885215  21.559353  0.000000
1.420000  0.000000  0.000000  0.000000  -36.911366  5.680975  13.660252  42.045678  26.459357  -0.385012  3.478891  51.837834  -2.943547  21.573052  0.000000
1.430000  0.000000  0.000000  0.000000  -36.908103  5.671082  13.616820  42.033472  26.463894  -0.355212  3.462466  51.737443  -2.999274  21.587347  0.000000
1.440000  0.000000  0.000000  0.000000  -36.903976  5.659443  13.569811  42.022520  26.462658  -0.326107  3.442760  51.629956  -3.052384  21.602231  0.000000
1.450000  0.000000  0.000000  0.000000  -36.898986  5.646061  13.519241  42.012828  26.455647  -0.297708  3.419775  51.515410  -3.102864  21.617700  0.000000
1.460000  0.000000  0.000000  0.000000  -36.893132  5.630941  13.465124  42.004403  26.442862  -0.270026  3.393511  51.393845  -3.150701  21.633745  0.000000
1.470000  0.000000  0.000000  0.000000  -36.886413  5.614087  13.407478  41.997247  26.424305  -0.243074  3.363973  51.265298  -3.195883  21.650360  0.000000
1.480000  0.000000  0.000000  0.000000  -36.878831  5.595504  13.346322  41.991367  26.399979  -0.216862  3.331165  51.129813  -3.238396  21.667538  0.000000
1.490000  0.000000  0.000000  0.000000  -36.870384  5.575199  13.281674  41.986766  26.369894  -0.191403  3.295094  50.987431  -3.278229  21.685272  0.000000
